<svg xmlns="http://www.w3.org/2000/svg" xmlns:xlink="http://www.w3.org/1999/xlink" width="1080" zoomAndPan="magnify" viewBox="0 0 810 809.999993" height="1080" preserveAspectRatio="xMidYMid meet" version="1.0"><defs><clipPath id="1748fb30f5"><path d="M 81 81 L 744.75 81 L 744.75 744.75 L 81 744.75 Z M 81 81 " clip-rule="nonzero"/></clipPath></defs><path fill="#bd1f1f" d="M 233.472656 121.167969 C 171.453125 121.167969 121.101562 171.515625 121.101562 233.535156 C 121.101562 295.554688 171.453125 345.90625 233.472656 345.90625 C 295.492188 345.90625 345.84375 295.554688 345.84375 233.535156 C 345.84375 171.515625 295.492188 121.167969 233.472656 121.167969 Z M 233.472656 163.027344 C 272.386719 163.027344 303.980469 194.621094 303.980469 233.535156 C 303.980469 272.453125 272.386719 304.046875 233.472656 304.046875 C 194.558594 304.046875 162.96875 272.453125 162.96875 233.535156 C 162.96875 194.621094 194.558594 163.027344 233.472656 163.027344 Z M 233.472656 163.027344 " fill-opacity="1" fill-rule="evenodd"/><path fill="#bd1f1f" d="M 591.867188 478.949219 C 529.847656 478.949219 479.496094 529.300781 479.496094 591.320312 C 479.496094 653.335938 529.847656 703.6875 591.867188 703.6875 C 653.886719 703.6875 704.238281 653.339844 704.238281 591.320312 C 704.238281 529.300781 653.886719 478.949219 591.867188 478.949219 Z M 591.867188 520.808594 C 630.78125 520.808594 662.375 552.402344 662.375 591.320312 C 662.375 630.234375 630.78125 661.828125 591.867188 661.828125 C 552.953125 661.828125 521.359375 630.234375 521.359375 591.320312 C 521.359375 552.402344 552.953125 520.808594 591.867188 520.808594 Z M 591.867188 520.808594 " fill-opacity="1" fill-rule="evenodd"/><g clip-path="url(#1748fb30f5)"><path fill="#7ea22e" d="M 379.019531 350.613281 C 379.019531 350.617188 379.019531 350.621094 379.015625 350.621094 C 378.683594 366.199219 366.132812 378.742188 350.558594 379.082031 C 350.554688 379.082031 350.550781 379.082031 350.550781 379.082031 C 329.503906 379.5625 308.859375 380.222656 289.03125 380.894531 C 187.648438 384.332031 107.785156 389.375 103.839844 389.625 C 91.199219 389.734375 80.953125 400.046875 80.953125 412.734375 C 80.953125 425.484375 91.300781 435.835938 104.054688 435.84375 L 103.859375 435.839844 C 107.988281 436.101562 187.777344 441.140625 289.03125 444.570312 C 308.917969 445.246094 329.628906 445.90625 350.738281 446.386719 C 350.738281 446.386719 350.742188 446.386719 350.746094 446.386719 C 366.289062 446.722656 378.824219 459.222656 379.207031 474.765625 C 379.207031 474.769531 379.207031 474.773438 379.207031 474.773438 C 379.75 495.847656 380.46875 516.515625 381.148438 536.375 C 384.628906 637.828125 389.339844 717.757812 389.5625 721.546875 C 389.664062 734.199219 399.980469 744.449219 412.667969 744.449219 C 425.371094 744.449219 435.691406 734.179688 435.777344 721.5 C 436.015625 717.566406 440.714844 637.707031 444.191406 536.375 C 444.875 516.457031 445.59375 495.726562 446.140625 474.585938 C 446.140625 474.585938 446.140625 474.582031 446.140625 474.578125 C 446.519531 459.066406 459.003906 446.582031 474.515625 446.203125 C 474.519531 446.203125 474.519531 446.203125 474.523438 446.203125 C 495.660156 445.65625 516.398438 444.9375 536.3125 444.253906 C 637.765625 440.773438 717.695312 436.0625 721.484375 435.839844 C 734.136719 435.738281 744.386719 425.425781 744.386719 412.734375 C 744.386719 400.03125 734.117188 389.710938 721.433594 389.625 C 717.503906 389.390625 637.644531 384.6875 536.3125 381.210938 C 516.457031 380.527344 495.785156 379.8125 474.710938 379.269531 C 474.707031 379.269531 474.707031 379.269531 474.703125 379.269531 C 459.160156 378.886719 446.664062 366.351562 446.328125 350.804688 C 446.328125 350.804688 446.328125 350.804688 446.328125 350.800781 C 445.84375 329.691406 445.183594 308.984375 444.507812 289.09375 C 441.074219 187.710938 436.027344 107.847656 435.777344 103.90625 C 435.667969 91.261719 425.355469 81.015625 412.667969 81.015625 C 399.921875 81.015625 389.566406 91.367188 389.5625 104.117188 L 389.5625 103.917969 C 389.300781 108.050781 384.261719 187.839844 380.832031 289.09375 C 380.160156 308.921875 379.5 329.566406 379.019531 350.613281 Z M 379.019531 350.613281 " fill-opacity="1" fill-rule="evenodd"/></g><path fill="#f9e9d0" d="M 193.941406 585.601562 C 197.097656 588.761719 197.097656 593.878906 193.941406 597.035156 C 193.941406 597.035156 139.53125 651.445312 139.53125 651.445312 C 130.199219 660.773438 130.199219 675.929688 139.53125 685.261719 C 148.867188 694.589844 164.015625 694.589844 173.351562 685.261719 C 173.351562 685.261719 227.757812 630.855469 227.757812 630.855469 C 230.914062 627.695312 236.035156 627.695312 239.191406 630.851562 C 239.191406 630.855469 293.597656 685.261719 293.597656 685.261719 C 302.929688 694.589844 318.082031 694.589844 327.414062 685.261719 C 336.746094 675.929688 336.746094 660.773438 327.414062 651.445312 C 327.414062 651.445312 273.007812 597.035156 273.007812 597.035156 C 269.851562 593.878906 269.851562 588.761719 273.007812 585.601562 C 273.007812 585.601562 327.414062 531.195312 327.414062 531.195312 C 336.746094 521.863281 336.746094 506.710938 327.414062 497.378906 C 318.082031 488.046875 302.929688 488.046875 293.597656 497.378906 C 293.597656 497.378906 239.191406 551.785156 239.191406 551.785156 C 236.035156 554.941406 230.914062 554.941406 227.757812 551.785156 C 227.757812 551.785156 173.351562 497.378906 173.351562 497.378906 C 164.015625 488.046875 148.867188 488.046875 139.53125 497.378906 C 130.199219 506.710938 130.199219 521.863281 139.53125 531.195312 Z M 193.941406 585.601562 " fill-opacity="1" fill-rule="evenodd"/><path fill="#f9e9d0" d="M 563.765625 215.777344 C 566.921875 218.9375 566.921875 224.054688 563.765625 227.210938 C 563.765625 227.210938 509.355469 281.621094 509.355469 281.621094 C 500.023438 290.953125 500.023438 306.105469 509.355469 315.4375 C 518.6875 324.769531 533.839844 324.769531 543.171875 315.4375 C 543.171875 315.4375 597.578125 261.03125 597.578125 261.03125 C 600.738281 257.871094 605.855469 257.871094 609.011719 261.03125 C 609.011719 261.03125 663.417969 315.4375 663.417969 315.4375 C 672.753906 324.769531 687.90625 324.769531 697.234375 315.4375 C 706.570312 306.105469 706.570312 290.953125 697.234375 281.621094 C 697.234375 281.621094 642.828125 227.210938 642.828125 227.210938 C 639.671875 224.054688 639.671875 218.9375 642.828125 215.777344 C 642.828125 215.777344 697.234375 161.371094 697.234375 161.371094 C 706.570312 152.039062 706.570312 136.886719 697.234375 127.554688 C 687.90625 118.226562 672.753906 118.226562 663.417969 127.554688 C 663.417969 127.554688 609.011719 181.960938 609.011719 181.960938 C 605.855469 185.121094 600.738281 185.121094 597.582031 181.964844 C 597.578125 181.960938 543.171875 127.554688 543.171875 127.554688 C 533.839844 118.226562 518.6875 118.226562 509.359375 127.554688 C 500.023438 136.886719 500.023438 152.039062 509.359375 161.371094 Z M 563.765625 215.777344 " fill-opacity="1" fill-rule="evenodd"/></svg>